<svg xmlns:mydata="http://www.w3.org/2000/svg" mydata:contrastcolor="85714d" mydata:template="Contrast" mydata:presentation="2.5" mydata:layouttype="undefined" mydata:specialfontid="undefined" mydata:id1="017" mydata:id2="017" mydata:companyname="Café Delícia" mydata:companytagline="A melhor cafeteria da região" version="1.1" xmlns="http://www.w3.org/2000/svg" xmlns:xlink="http://www.w3.org/1999/xlink" viewBox="65 188 420 93"><g fill="#85714d" fill-rule="none" stroke="none" stroke-width="1" stroke-linecap="butt" stroke-linejoin="miter" stroke-miterlimit="10" stroke-dasharray="" stroke-dashoffset="0" font-family="none" font-weight="none" font-size="none" text-anchor="none" style="mix-blend-mode: normal"><g data-paper-data="{&quot;isGlobalGroup&quot;:true,&quot;bounds&quot;:{&quot;x&quot;:64.99999999999997,&quot;y&quot;:188.13939511349523,&quot;width&quot;:420,&quot;height&quot;:93.72120977300958}}"><g data-paper-data="{&quot;textHeightFactor&quot;:0.4743276283618582,&quot;isSecondaryText&quot;:true}" fill-rule="nonzero"><path d="M100.70385,277.68316h-3.85944c-0.16382,0.3951 -0.30355,0.74442 -0.41919,1.04797c-0.11564,0.30355 -0.20959,0.56615 -0.28187,0.78779c-0.07227,0.22164 -0.12287,0.40955 -0.15178,0.56374c-0.02891,0.15418 -0.04336,0.27946 -0.04336,0.37583c0,0.26982 0.08673,0.45533 0.26019,0.55651c0.17346,0.10118 0.46255,0.15178 0.86729,0.15178v0.54928h-3.51252v-0.54928c0.22164,-0.02891 0.41196,-0.06746 0.57097,-0.11564c0.159,-0.04818 0.29873,-0.11564 0.41919,-0.20237c0.12046,-0.08673 0.22646,-0.19996 0.31801,-0.33969c0.09155,-0.13973 0.18069,-0.31078 0.26741,-0.51315l3.75825,-9.41008h0.62156l3.28124,8.15252c0.22164,0.53965 0.41437,0.97088 0.57819,1.29371c0.16382,0.32282 0.32282,0.56615 0.47701,0.72997c0.15418,0.16382 0.32042,0.26982 0.49869,0.31801c0.17828,0.04818 0.39269,0.07227 0.64324,0.07227v0.56374h-4.71227v-0.56374c0.51074,0 0.86247,-0.04818 1.0552,-0.14455c0.19273,-0.09637 0.2891,-0.25537 0.2891,-0.47701c0,-0.09637 -0.00482,-0.1855 -0.01445,-0.26741c-0.00964,-0.08191 -0.0265,-0.17105 -0.05059,-0.26741c-0.02409,-0.09637 -0.05782,-0.20478 -0.10118,-0.32523c-0.04336,-0.12046 -0.09877,-0.2626 -0.16623,-0.42642zM97.13351,276.96042h3.2957l-1.60448,-4.26417z" data-paper-data="{&quot;glyphName&quot;:&quot;A&quot;,&quot;glyphIndex&quot;:0,&quot;lastGlyphOfWord&quot;:true,&quot;firstGlyphOfWord&quot;:true,&quot;word&quot;:1}" fill="#ffffff"></path><path d="M122.33789,279.12864l3.75825,-8.5428h3.23788v0.54928c-0.30837,0.00964 -0.55651,0.04818 -0.74442,0.11564c-0.18791,0.06746 -0.33246,0.18069 -0.43364,0.33969c-0.10118,0.159 -0.16864,0.37823 -0.20237,0.65769c-0.03373,0.27946 -0.05059,0.63601 -0.05059,1.06966v5.66629c0,0.48183 0.01927,0.86247 0.05782,1.14193c0.03855,0.27946 0.11323,0.49628 0.22405,0.65047c0.11082,0.15418 0.26982,0.25537 0.47701,0.30355c0.20719,0.04818 0.47942,0.07709 0.8167,0.08673v0.54928h-4.68336v-0.54928c0.33728,-0.00964 0.60951,-0.04096 0.8167,-0.09396c0.20719,-0.053 0.3686,-0.15178 0.48424,-0.29632c0.11564,-0.14455 0.19273,-0.34932 0.23128,-0.61433c0.03855,-0.265 0.05782,-0.62397 0.05782,-1.07688v-6.70703h-0.14455l-4.22081,9.48236h-0.31801l-4.14853,-9.48236h-0.05782v6.60585c0,0.48183 0.01927,0.86247 0.05782,1.14193c0.03855,0.27946 0.11323,0.49628 0.22405,0.65047c0.11082,0.15418 0.26982,0.25537 0.47701,0.30355c0.20719,0.04818 0.47942,0.07709 0.8167,0.08673v0.54928h-4.03289v-0.54928c0.33728,-0.00964 0.60951,-0.04096 0.8167,-0.09396c0.20719,-0.053 0.3686,-0.15178 0.48424,-0.29632c0.11564,-0.14455 0.19273,-0.34932 0.23128,-0.61433c0.03855,-0.265 0.05782,-0.62397 0.05782,-1.07688v-5.86865c0,-0.40473 -0.01686,-0.7396 -0.05059,-1.00461c-0.03373,-0.265 -0.10118,-0.4746 -0.20237,-0.62878c-0.10118,-0.15418 -0.24814,-0.2626 -0.44087,-0.32523c-0.19273,-0.06264 -0.44328,-0.10359 -0.75165,-0.12287v-0.54928h3.4547l3.64261,8.5428z" data-paper-data="{&quot;glyphName&quot;:&quot;M&quot;,&quot;glyphIndex&quot;:1,&quot;firstGlyphOfWord&quot;:true,&quot;word&quot;:2}" fill="#ffffff"></path><path d="M136.91316,275.60167c0.52037,0 0.95643,-0.03132 1.30816,-0.09396c0.35173,-0.06264 0.63119,-0.16141 0.83838,-0.29632c0.20719,-0.13491 0.35655,-0.30837 0.4481,-0.52037c0.09155,-0.212 0.13732,-0.46255 0.13732,-0.75165h0.50592v3.94616h-0.50592c0,-0.2891 -0.04096,-0.53965 -0.12287,-0.75165c-0.08191,-0.212 -0.22646,-0.38787 -0.43364,-0.5276c-0.20719,-0.13973 -0.48665,-0.24573 -0.83838,-0.31801c-0.35173,-0.07227 -0.79742,-0.10841 -1.33707,-0.10841v3.26679c0,0.31801 0.03855,0.5806 0.11564,0.78779c0.07709,0.20719 0.20959,0.37583 0.39751,0.50592c0.18791,0.13009 0.43605,0.22164 0.74442,0.27464c0.30837,0.053 0.68901,0.0795 1.14193,0.0795c0.51074,0 0.94438,-0.03614 1.30093,-0.10841c0.35655,-0.07227 0.65528,-0.19514 0.8962,-0.3686c0.24091,-0.17346 0.43364,-0.40233 0.57819,-0.6866c0.14455,-0.28428 0.265,-0.63842 0.36137,-1.06243h0.54928l-0.21682,2.8476h-8.97644v-0.54928c0.33728,-0.00964 0.60951,-0.03855 0.8167,-0.08673c0.20719,-0.04818 0.3686,-0.13009 0.48424,-0.24573c0.11564,-0.11564 0.19273,-0.27946 0.23128,-0.49146c0.03855,-0.212 0.05782,-0.48665 0.05782,-0.82392v-6.73594c0,-0.33728 -0.01686,-0.60951 -0.05059,-0.8167c-0.03373,-0.20719 -0.10118,-0.37101 -0.20237,-0.49146c-0.10118,-0.12046 -0.24814,-0.20237 -0.44087,-0.24573c-0.19273,-0.04336 -0.44328,-0.07468 -0.75165,-0.09396v-0.54928h8.35488l0.13009,2.54405h-0.50592c-0.05782,-0.38546 -0.15178,-0.70106 -0.28187,-0.94679c-0.13009,-0.24573 -0.30837,-0.44087 -0.53483,-0.58542c-0.22646,-0.14455 -0.51315,-0.24573 -0.86006,-0.30355c-0.34692,-0.05782 -0.76611,-0.08673 -1.25757,-0.08673h-1.83576c-0.16382,0 -0.24573,0.08191 -0.24573,0.24573z" data-paper-data="{&quot;glyphName&quot;:&quot;E&quot;,&quot;glyphIndex&quot;:2,&quot;word&quot;:2}" fill="#ffffff"></path><path d="M156.6488,281.71606h-9.33781v-0.54928c0.33728,-0.00964 0.60951,-0.03855 0.8167,-0.08673c0.20719,-0.04818 0.3686,-0.13009 0.48424,-0.24573c0.11564,-0.11564 0.19273,-0.27946 0.23128,-0.49146c0.03855,-0.212 0.05782,-0.48665 0.05782,-0.82392v-6.73594c0,-0.33728 -0.01686,-0.60951 -0.05059,-0.8167c-0.03373,-0.20719 -0.10118,-0.37101 -0.20237,-0.49146c-0.10118,-0.12046 -0.24814,-0.20237 -0.44087,-0.24573c-0.19273,-0.04336 -0.44328,-0.07468 -0.75165,-0.09396v-0.54928h4.39426v0.54928c-0.30837,0.00964 -0.55651,0.03855 -0.74442,0.08673c-0.18791,0.04818 -0.33246,0.13491 -0.43364,0.26019c-0.10118,0.12528 -0.16864,0.29873 -0.20237,0.52037c-0.03373,0.22164 -0.05059,0.51556 -0.05059,0.88174v6.23003c0,0.40473 0.04096,0.73479 0.12287,0.99015c0.08191,0.25537 0.22164,0.45292 0.41919,0.59265c0.19755,0.13973 0.46014,0.2361 0.78779,0.2891c0.32764,0.053 0.74201,0.0795 1.24311,0.0795c0.54928,0 1.01184,-0.03132 1.38766,-0.09396c0.37583,-0.06264 0.69142,-0.17346 0.94679,-0.33246c0.25537,-0.159 0.45774,-0.38064 0.6071,-0.66492c0.14937,-0.28428 0.27705,-0.65288 0.38305,-1.10579h0.54928z" data-paper-data="{&quot;glyphName&quot;:&quot;L&quot;,&quot;glyphIndex&quot;:3,&quot;word&quot;:2}" fill="#ffffff"></path><path d="M171.3108,279.41774c0,0.36619 0.01927,0.66251 0.05782,0.88897c0.03855,0.22646 0.11323,0.39992 0.22405,0.52037c0.11082,0.12046 0.26982,0.20478 0.47701,0.25296c0.20719,0.04818 0.47942,0.07709 0.8167,0.08673v0.54928h-4.68336v-0.54928c0.33728,-0.00964 0.60951,-0.03855 0.8167,-0.08673c0.20719,-0.04818 0.3686,-0.13009 0.48424,-0.24573c0.11564,-0.11564 0.19273,-0.27946 0.23128,-0.49146c0.03855,-0.212 0.05782,-0.48665 0.05782,-0.82392v-3.13669h-5.8542v3.03551c0,0.36619 0.01927,0.66251 0.05782,0.88897c0.03855,0.22646 0.11323,0.39992 0.22405,0.52037c0.11082,0.12046 0.26982,0.20478 0.47701,0.25296c0.20719,0.04818 0.47942,0.07709 0.8167,0.08673v0.54928h-4.68336v-0.54928c0.33728,-0.00964 0.60951,-0.03855 0.8167,-0.08673c0.20719,-0.04818 0.3686,-0.13009 0.48424,-0.24573c0.11564,-0.11564 0.19273,-0.27946 0.23128,-0.49146c0.03855,-0.212 0.05782,-0.48665 0.05782,-0.82392v-6.73594c0,-0.33728 -0.01686,-0.60951 -0.05059,-0.8167c-0.03373,-0.20719 -0.10118,-0.37101 -0.20237,-0.49146c-0.10118,-0.12046 -0.24814,-0.20237 -0.44087,-0.24573c-0.19273,-0.04336 -0.44328,-0.07468 -0.75165,-0.09396v-0.54928h4.39426v0.54928c-0.30837,0.00964 -0.55651,0.03855 -0.74442,0.08673c-0.18791,0.04818 -0.33246,0.13491 -0.43364,0.26019c-0.10118,0.12528 -0.16864,0.29873 -0.20237,0.52037c-0.03373,0.22164 -0.05059,0.51556 -0.05059,0.88174v2.77532h5.8542v-2.87651c0,-0.33728 -0.01686,-0.60951 -0.05059,-0.8167c-0.03373,-0.20719 -0.10118,-0.37101 -0.20237,-0.49146c-0.10118,-0.12046 -0.24814,-0.20237 -0.44087,-0.24573c-0.19273,-0.04336 -0.44328,-0.07468 -0.75165,-0.09396v-0.54928h4.39426v0.54928c-0.30837,0.00964 -0.55651,0.03855 -0.74442,0.08673c-0.18791,0.04818 -0.33246,0.13491 -0.43364,0.26019c-0.10118,0.12528 -0.16864,0.29873 -0.20237,0.52037c-0.03373,0.22164 -0.05059,0.51556 -0.05059,0.88174z" data-paper-data="{&quot;glyphName&quot;:&quot;H&quot;,&quot;glyphIndex&quot;:4,&quot;word&quot;:2}" fill="#ffffff"></path><path d="M183.19747,270.4413c0.84802,0 1.63821,0.14937 2.37059,0.4481c0.73238,0.29873 1.36839,0.70829 1.90804,1.22866c0.53965,0.52037 0.96365,1.13229 1.27202,1.83576c0.30837,0.70347 0.46255,1.46475 0.46255,2.28386c0,0.78056 -0.15659,1.51294 -0.46978,2.19713c-0.31319,0.68419 -0.7396,1.27925 -1.27925,1.78517c-0.53965,0.50592 -1.17566,0.90584 -1.90804,1.19975c-0.73238,0.29391 -1.51776,0.44087 -2.35613,0.44087c-0.83838,0 -1.62376,-0.14696 -2.35613,-0.44087c-0.73238,-0.29391 -1.36839,-0.69383 -1.90804,-1.19975c-0.53965,-0.50592 -0.96606,-1.10098 -1.27925,-1.78517c-0.31319,-0.68419 -0.46978,-1.41657 -0.46978,-2.19713c0,-0.81911 0.15418,-1.58039 0.46255,-2.28386c0.30837,-0.70347 0.73238,-1.31539 1.27202,-1.83576c0.53965,-0.52037 1.17566,-0.92993 1.90804,-1.22866c0.73238,-0.29873 1.52257,-0.4481 2.37059,-0.4481zM183.19747,281.06559c0.63601,0 1.20698,-0.11082 1.7129,-0.33246c0.50592,-0.22164 0.93956,-0.53965 1.30093,-0.95402c0.36137,-0.41437 0.63842,-0.91788 0.83115,-1.51053c0.19273,-0.59265 0.2891,-1.25516 0.2891,-1.98754c0,-0.77092 -0.09637,-1.46716 -0.2891,-2.08872c-0.19273,-0.62156 -0.46737,-1.15157 -0.82392,-1.59003c-0.35655,-0.43846 -0.7902,-0.77574 -1.30093,-1.01184c-0.51074,-0.2361 -1.08411,-0.35414 -1.72012,-0.35414c-0.63601,0 -1.20939,0.11805 -1.72012,0.35414c-0.51074,0.2361 -0.94438,0.57337 -1.30093,1.01184c-0.35655,0.43846 -0.63119,0.96847 -0.82392,1.59003c-0.19273,0.62156 -0.2891,1.3178 -0.2891,2.08872c0,0.73238 0.09637,1.39489 0.2891,1.98754c0.19273,0.59265 0.46737,1.09616 0.82392,1.51053c0.35655,0.41437 0.7902,0.73238 1.30093,0.95402c0.51074,0.22164 1.08411,0.33246 1.72012,0.33246z" data-paper-data="{&quot;glyphName&quot;:&quot;O&quot;,&quot;glyphIndex&quot;:5,&quot;word&quot;:2}" fill="#ffffff"></path><path d="M202.36938,273.37563c0,0.77092 -0.23128,1.41175 -0.69383,1.92249c-0.46255,0.51074 -1.19975,0.85283 -2.21159,1.02629l3.19451,3.84498c0.26019,0.31801 0.54687,0.54687 0.86006,0.6866c0.31319,0.13973 0.6866,0.24332 1.12025,0.31078v0.54928h-2.78978l-3.54143,-4.53881c-0.12528,-0.16382 -0.24332,-0.29391 -0.35414,-0.39028c-0.11082,-0.09637 -0.22646,-0.17105 -0.34692,-0.22405c-0.12046,-0.053 -0.26019,-0.08673 -0.41919,-0.10118c-0.159,-0.01445 -0.34932,-0.02168 -0.57097,-0.02168v3.0066c0,0.35655 0.02168,0.64806 0.06505,0.87452c0.04336,0.22646 0.13491,0.40233 0.27464,0.5276c0.13973,0.12528 0.3421,0.20959 0.6071,0.25296c0.265,0.04336 0.61433,0.06505 1.04797,0.06505v0.54928h-5.10255v-0.54928c0.33728,-0.00964 0.60951,-0.03855 0.8167,-0.08673c0.20719,-0.04818 0.3686,-0.13009 0.48424,-0.24573c0.11564,-0.11564 0.19273,-0.27946 0.23128,-0.49146c0.03855,-0.212 0.05782,-0.48665 0.05782,-0.82392v-6.73594c0,-0.33728 -0.01686,-0.60951 -0.05059,-0.8167c-0.03373,-0.20719 -0.10118,-0.37101 -0.20237,-0.49146c-0.10118,-0.12046 -0.24814,-0.20237 -0.44087,-0.24573c-0.19273,-0.04336 -0.44328,-0.07468 -0.75165,-0.09396v-0.54928h4.53881c1.32984,0 2.35854,0.24573 3.0861,0.7372c0.72756,0.49146 1.09134,1.17566 1.09134,2.05258zM196.61636,275.71731h1.02629c0.96365,0 1.67917,-0.17587 2.14654,-0.5276c0.46737,-0.35173 0.70106,-0.93234 0.70106,-1.74181c0,-0.78056 -0.1855,-1.33948 -0.55651,-1.67676c-0.37101,-0.33728 -0.95161,-0.50592 -1.74181,-0.50592h-1.32984c-0.16382,0 -0.24573,0.08191 -0.24573,0.24573z" data-paper-data="{&quot;glyphName&quot;:&quot;R&quot;,&quot;glyphIndex&quot;:6,&quot;lastGlyphOfWord&quot;:true,&quot;word&quot;:2}" fill="#ffffff"></path><path d="M223.90223,270.58585h0.40473l0.13009,3.32461h-0.53483c-0.212,-0.84802 -0.62156,-1.51294 -1.22866,-1.99476c-0.6071,-0.48183 -1.33948,-0.72274 -2.19713,-0.72274c-0.58783,0 -1.11302,0.11564 -1.57557,0.34692c-0.46255,0.23128 -0.85283,0.56374 -1.17084,0.99738c-0.31801,0.43364 -0.56133,0.96365 -0.72997,1.59003c-0.16864,0.62638 -0.25296,1.33466 -0.25296,2.12486c0,1.55148 0.32282,2.74401 0.96847,3.57757c0.64565,0.83356 1.58039,1.25034 2.80423,1.25034c1.85985,0 3.05478,-0.98775 3.58479,-2.96324h0.59265v3.59925h-0.50592l-0.33246,-1.14193c-1.01184,0.85765 -2.23568,1.28648 -3.67152,1.28648c-0.81911,0 -1.55871,-0.13009 -2.21881,-0.39028c-0.6601,-0.26019 -1.22384,-0.62878 -1.69121,-1.10579c-0.46737,-0.47701 -0.82874,-1.05761 -1.08411,-1.74181c-0.25537,-0.68419 -0.38305,-1.44548 -0.38305,-2.28386c0,-0.87693 0.13491,-1.67676 0.40473,-2.3995c0.26982,-0.72274 0.64806,-1.3443 1.1347,-1.86467c0.48665,-0.52037 1.06966,-0.9227 1.74903,-1.20698c0.67938,-0.28428 1.42862,-0.42642 2.24772,-0.42642c0.57819,0 1.12266,0.08191 1.63339,0.24573c0.51074,0.16382 1.06484,0.42883 1.6623,0.79501z" data-paper-data="{&quot;glyphName&quot;:&quot;C&quot;,&quot;glyphIndex&quot;:7,&quot;firstGlyphOfWord&quot;:true,&quot;word&quot;:3}" fill="#ffffff"></path><path d="M235.60099,277.68316h-3.85944c-0.16382,0.3951 -0.30355,0.74442 -0.41919,1.04797c-0.11564,0.30355 -0.20959,0.56615 -0.28187,0.78779c-0.07227,0.22164 -0.12287,0.40955 -0.15178,0.56374c-0.02891,0.15418 -0.04336,0.27946 -0.04336,0.37583c0,0.26982 0.08673,0.45533 0.26019,0.55651c0.17346,0.10118 0.46255,0.15178 0.86729,0.15178v0.54928h-3.51252v-0.54928c0.22164,-0.02891 0.41196,-0.06746 0.57097,-0.11564c0.159,-0.04818 0.29873,-0.11564 0.41919,-0.20237c0.12046,-0.08673 0.22646,-0.19996 0.31801,-0.33969c0.09155,-0.13973 0.18069,-0.31078 0.26741,-0.51315l3.75825,-9.41008h0.62156l3.28124,8.15252c0.22164,0.53965 0.41437,0.97088 0.57819,1.29371c0.16382,0.32282 0.32282,0.56615 0.47701,0.72997c0.15418,0.16382 0.32042,0.26982 0.49869,0.31801c0.17828,0.04818 0.39269,0.07227 0.64324,0.07227v0.56374h-4.71227v-0.56374c0.51074,0 0.86247,-0.04818 1.0552,-0.14455c0.19273,-0.09637 0.2891,-0.25537 0.2891,-0.47701c0,-0.09637 -0.00482,-0.1855 -0.01445,-0.26741c-0.00964,-0.08191 -0.0265,-0.17105 -0.05059,-0.26741c-0.02409,-0.09637 -0.05782,-0.20478 -0.10118,-0.32523c-0.04336,-0.12046 -0.09877,-0.2626 -0.16623,-0.42642zM232.03065,276.96042h3.2957l-1.60448,-4.26417z" data-paper-data="{&quot;glyphName&quot;:&quot;A&quot;,&quot;glyphIndex&quot;:8,&quot;word&quot;:3}" fill="#ffffff"></path><path d="M246.47583,279.41774c0,0.36619 0.02168,0.66251 0.06505,0.88897c0.04336,0.22646 0.13732,0.39992 0.28187,0.52037c0.14455,0.12046 0.34932,0.20478 0.61433,0.25296c0.265,0.04818 0.61433,0.07709 1.04797,0.08673v0.54928h-5.117v-0.54928c0.33728,-0.00964 0.60951,-0.03855 0.8167,-0.08673c0.20719,-0.04818 0.3686,-0.13009 0.48424,-0.24573c0.11564,-0.11564 0.19273,-0.27946 0.23128,-0.49146c0.03855,-0.212 0.05782,-0.48665 0.05782,-0.82392v-6.73594c0,-0.33728 -0.01686,-0.60951 -0.05059,-0.8167c-0.03373,-0.20719 -0.10118,-0.37101 -0.20237,-0.49146c-0.10118,-0.12046 -0.24814,-0.20237 -0.44087,-0.24573c-0.19273,-0.04336 -0.44328,-0.07468 -0.75165,-0.09396v-0.54928h8.35488l0.159,2.76087h-0.50592c-0.05782,-0.41437 -0.14937,-0.75406 -0.27464,-1.01906c-0.12528,-0.265 -0.30114,-0.4746 -0.5276,-0.62878c-0.22646,-0.15418 -0.51315,-0.2626 -0.86006,-0.32523c-0.34692,-0.06264 -0.78056,-0.09396 -1.30093,-0.09396h-1.83576c-0.16382,0 -0.24573,0.08191 -0.24573,0.24573v4.36535c0.46255,0 0.86006,-0.0265 1.19252,-0.0795c0.33246,-0.053 0.6071,-0.14696 0.82392,-0.28187c0.21682,-0.13491 0.38305,-0.31801 0.49869,-0.54928c0.11564,-0.23128 0.18791,-0.53001 0.21682,-0.8962h0.50592v4.23526h-0.50592c-0.04818,-0.36619 -0.12528,-0.66974 -0.23128,-0.91065c-0.106,-0.24091 -0.2626,-0.42883 -0.46978,-0.56374c-0.20719,-0.13491 -0.4746,-0.23128 -0.80224,-0.2891c-0.32764,-0.05782 -0.7372,-0.08673 -1.22866,-0.08673z" data-paper-data="{&quot;glyphName&quot;:&quot;F&quot;,&quot;glyphIndex&quot;:9,&quot;word&quot;:3}" fill="#ffffff"></path><path d="M259.17198,275.60167c0.52037,0 0.95643,-0.03132 1.30816,-0.09396c0.35173,-0.06264 0.63119,-0.16141 0.83838,-0.29632c0.20719,-0.13491 0.35655,-0.30837 0.4481,-0.52037c0.09155,-0.212 0.13732,-0.46255 0.13732,-0.75165h0.50592v3.94616h-0.50592c0,-0.2891 -0.04096,-0.53965 -0.12287,-0.75165c-0.08191,-0.212 -0.22646,-0.38787 -0.43364,-0.5276c-0.20719,-0.13973 -0.48665,-0.24573 -0.83838,-0.31801c-0.35173,-0.07227 -0.79742,-0.10841 -1.33707,-0.10841v3.26679c0,0.31801 0.03855,0.5806 0.11564,0.78779c0.07709,0.20719 0.20959,0.37583 0.39751,0.50592c0.18791,0.13009 0.43605,0.22164 0.74442,0.27464c0.30837,0.053 0.68901,0.0795 1.14193,0.0795c0.51074,0 0.94438,-0.03614 1.30093,-0.10841c0.35655,-0.07227 0.65528,-0.19514 0.8962,-0.3686c0.24091,-0.17346 0.43364,-0.40233 0.57819,-0.6866c0.14455,-0.28428 0.265,-0.63842 0.36137,-1.06243h0.54928l-0.21682,2.8476h-8.97644v-0.54928c0.33728,-0.00964 0.60951,-0.03855 0.8167,-0.08673c0.20719,-0.04818 0.3686,-0.13009 0.48424,-0.24573c0.11564,-0.11564 0.19273,-0.27946 0.23128,-0.49146c0.03855,-0.212 0.05782,-0.48665 0.05782,-0.82392v-6.73594c0,-0.33728 -0.01686,-0.60951 -0.05059,-0.8167c-0.03373,-0.20719 -0.10118,-0.37101 -0.20237,-0.49146c-0.10118,-0.12046 -0.24814,-0.20237 -0.44087,-0.24573c-0.19273,-0.04336 -0.44328,-0.07468 -0.75165,-0.09396v-0.54928h8.35488l0.13009,2.54405h-0.50592c-0.05782,-0.38546 -0.15178,-0.70106 -0.28187,-0.94679c-0.13009,-0.24573 -0.30837,-0.44087 -0.53483,-0.58542c-0.22646,-0.14455 -0.51315,-0.24573 -0.86006,-0.30355c-0.34692,-0.05782 -0.76611,-0.08673 -1.25757,-0.08673h-1.83576c-0.16382,0 -0.24573,0.08191 -0.24573,0.24573z" data-paper-data="{&quot;glyphName&quot;:&quot;E&quot;,&quot;glyphIndex&quot;:10,&quot;word&quot;:3}" fill="#ffffff"></path><path d="M280.28083,273.34672h-0.59265c-0.02891,-0.41437 -0.09637,-0.76129 -0.20237,-1.04075c-0.106,-0.27946 -0.25778,-0.49869 -0.45533,-0.65769c-0.19755,-0.159 -0.44569,-0.27223 -0.74442,-0.33969c-0.29873,-0.06746 -0.65528,-0.10118 -1.06966,-0.10118c-0.35655,0 -0.64324,0.00723 -0.86006,0.02168c-0.21682,0.01445 -0.38305,0.04096 -0.49869,0.0795c-0.11564,0.03855 -0.19032,0.08432 -0.22405,0.13732c-0.03373,0.053 -0.05059,0.12287 -0.05059,0.20959v7.73333c0,0.30837 0.02168,0.57337 0.06505,0.79501c0.04336,0.22164 0.13009,0.40233 0.26019,0.54206c0.13009,0.13973 0.31801,0.24573 0.56374,0.31801c0.24573,0.07227 0.57097,0.11323 0.9757,0.12287v0.54928h-5.46392v-0.54928c0.40473,-0.00964 0.73238,-0.05059 0.98293,-0.12287c0.25055,-0.07227 0.44087,-0.17828 0.57097,-0.31801c0.13009,-0.13973 0.21682,-0.32042 0.26019,-0.54206c0.04336,-0.22164 0.06505,-0.48665 0.06505,-0.79501v-7.73333c0,-0.08673 -0.01686,-0.15659 -0.05059,-0.20959c-0.03373,-0.053 -0.10118,-0.09877 -0.20237,-0.13732c-0.10118,-0.03855 -0.24332,-0.06505 -0.42642,-0.0795c-0.18309,-0.01445 -0.42883,-0.02168 -0.7372,-0.02168c-0.37583,0 -0.72515,0.01445 -1.04797,0.04336c-0.32282,0.02891 -0.60228,0.11323 -0.83838,0.25296c-0.2361,0.13973 -0.42642,0.35414 -0.57097,0.64324c-0.14455,0.2891 -0.22164,0.68901 -0.23128,1.19975h-0.53483v-2.76087h10.91338z" data-paper-data="{&quot;glyphName&quot;:&quot;T&quot;,&quot;glyphIndex&quot;:11,&quot;word&quot;:3}" fill="#ffffff"></path><path d="M287.29623,275.60167c0.52037,0 0.95643,-0.03132 1.30816,-0.09396c0.35173,-0.06264 0.63119,-0.16141 0.83838,-0.29632c0.20719,-0.13491 0.35655,-0.30837 0.4481,-0.52037c0.09155,-0.212 0.13732,-0.46255 0.13732,-0.75165h0.50592v3.94616h-0.50592c0,-0.2891 -0.04096,-0.53965 -0.12287,-0.75165c-0.08191,-0.212 -0.22646,-0.38787 -0.43364,-0.5276c-0.20719,-0.13973 -0.48665,-0.24573 -0.83838,-0.31801c-0.35173,-0.07227 -0.79742,-0.10841 -1.33707,-0.10841v3.26679c0,0.31801 0.03855,0.5806 0.11564,0.78779c0.07709,0.20719 0.20959,0.37583 0.39751,0.50592c0.18791,0.13009 0.43605,0.22164 0.74442,0.27464c0.30837,0.053 0.68901,0.0795 1.14193,0.0795c0.51074,0 0.94438,-0.03614 1.30093,-0.10841c0.35655,-0.07227 0.65528,-0.19514 0.8962,-0.3686c0.24091,-0.17346 0.43364,-0.40233 0.57819,-0.6866c0.14455,-0.28428 0.265,-0.63842 0.36137,-1.06243h0.54928l-0.21682,2.8476h-8.97644v-0.54928c0.33728,-0.00964 0.60951,-0.03855 0.8167,-0.08673c0.20719,-0.04818 0.3686,-0.13009 0.48424,-0.24573c0.11564,-0.11564 0.19273,-0.27946 0.23128,-0.49146c0.03855,-0.212 0.05782,-0.48665 0.05782,-0.82392v-6.73594c0,-0.33728 -0.01686,-0.60951 -0.05059,-0.8167c-0.03373,-0.20719 -0.10118,-0.37101 -0.20237,-0.49146c-0.10118,-0.12046 -0.24814,-0.20237 -0.44087,-0.24573c-0.19273,-0.04336 -0.44328,-0.07468 -0.75165,-0.09396v-0.54928h8.35488l0.13009,2.54405h-0.50592c-0.05782,-0.38546 -0.15178,-0.70106 -0.28187,-0.94679c-0.13009,-0.24573 -0.30837,-0.44087 -0.53483,-0.58542c-0.22646,-0.14455 -0.51315,-0.24573 -0.86006,-0.30355c-0.34692,-0.05782 -0.76611,-0.08673 -1.25757,-0.08673h-1.83576c-0.16382,0 -0.24573,0.08191 -0.24573,0.24573z" data-paper-data="{&quot;glyphName&quot;:&quot;E&quot;,&quot;glyphIndex&quot;:12,&quot;word&quot;:3}" fill="#ffffff"></path><path d="M306.55486,273.37563c0,0.77092 -0.23128,1.41175 -0.69383,1.92249c-0.46255,0.51074 -1.19975,0.85283 -2.21159,1.02629l3.19451,3.84498c0.26019,0.31801 0.54687,0.54687 0.86006,0.6866c0.31319,0.13973 0.6866,0.24332 1.12025,0.31078v0.54928h-2.78978l-3.54143,-4.53881c-0.12528,-0.16382 -0.24332,-0.29391 -0.35414,-0.39028c-0.11082,-0.09637 -0.22646,-0.17105 -0.34692,-0.22405c-0.12046,-0.053 -0.26019,-0.08673 -0.41919,-0.10118c-0.159,-0.01445 -0.34932,-0.02168 -0.57097,-0.02168v3.0066c0,0.35655 0.02168,0.64806 0.06505,0.87452c0.04336,0.22646 0.13491,0.40233 0.27464,0.5276c0.13973,0.12528 0.3421,0.20959 0.6071,0.25296c0.265,0.04336 0.61433,0.06505 1.04797,0.06505v0.54928h-5.10255v-0.54928c0.33728,-0.00964 0.60951,-0.03855 0.8167,-0.08673c0.20719,-0.04818 0.3686,-0.13009 0.48424,-0.24573c0.11564,-0.11564 0.19273,-0.27946 0.23128,-0.49146c0.03855,-0.212 0.05782,-0.48665 0.05782,-0.82392v-6.73594c0,-0.33728 -0.01686,-0.60951 -0.05059,-0.8167c-0.03373,-0.20719 -0.10118,-0.37101 -0.20237,-0.49146c-0.10118,-0.12046 -0.24814,-0.20237 -0.44087,-0.24573c-0.19273,-0.04336 -0.44328,-0.07468 -0.75165,-0.09396v-0.54928h4.53881c1.32984,0 2.35854,0.24573 3.0861,0.7372c0.72756,0.49146 1.09134,1.17566 1.09134,2.05258zM300.80184,275.71731h1.02629c0.96365,0 1.67917,-0.17587 2.14654,-0.5276c0.46737,-0.35173 0.70106,-0.93234 0.70106,-1.74181c0,-0.78056 -0.1855,-1.33948 -0.55651,-1.67676c-0.37101,-0.33728 -0.95161,-0.50592 -1.74181,-0.50592h-1.32984c-0.16382,0 -0.24573,0.08191 -0.24573,0.24573z" data-paper-data="{&quot;glyphName&quot;:&quot;R&quot;,&quot;glyphIndex&quot;:13,&quot;word&quot;:3}" fill="#ffffff"></path><path d="M315.20366,278.9841c0,0.48183 0.01927,0.86247 0.05782,1.14193c0.03855,0.27946 0.11323,0.49628 0.22405,0.65047c0.11082,0.15418 0.26982,0.25537 0.47701,0.30355c0.20719,0.04818 0.47942,0.07709 0.8167,0.08673v0.54928h-4.68336v-0.54928c0.33728,-0.00964 0.60951,-0.04096 0.8167,-0.09396c0.20719,-0.053 0.3686,-0.15178 0.48424,-0.29632c0.11564,-0.14455 0.19273,-0.34932 0.23128,-0.61433c0.03855,-0.265 0.05782,-0.62397 0.05782,-1.07688v-5.86865c0,-0.40473 -0.01686,-0.7396 -0.05059,-1.00461c-0.03373,-0.265 -0.10118,-0.4746 -0.20237,-0.62878c-0.10118,-0.15418 -0.24814,-0.2626 -0.44087,-0.32523c-0.19273,-0.06264 -0.44328,-0.10359 -0.75165,-0.12287v-0.54928h4.39426v0.54928c-0.30837,0.00964 -0.55651,0.04818 -0.74442,0.11564c-0.18791,0.06746 -0.33246,0.18069 -0.43364,0.33969c-0.10118,0.159 -0.16864,0.37823 -0.20237,0.65769c-0.03373,0.27946 -0.05059,0.63601 -0.05059,1.06966z" data-paper-data="{&quot;glyphName&quot;:&quot;I&quot;,&quot;glyphIndex&quot;:14,&quot;word&quot;:3}" fill="#ffffff"></path><path d="M327.50952,277.68316h-3.85944c-0.16382,0.3951 -0.30355,0.74442 -0.41919,1.04797c-0.11564,0.30355 -0.20959,0.56615 -0.28187,0.78779c-0.07227,0.22164 -0.12287,0.40955 -0.15178,0.56374c-0.02891,0.15418 -0.04336,0.27946 -0.04336,0.37583c0,0.26982 0.08673,0.45533 0.26019,0.55651c0.17346,0.10118 0.46255,0.15178 0.86729,0.15178v0.54928h-3.51252v-0.54928c0.22164,-0.02891 0.41196,-0.06746 0.57097,-0.11564c0.159,-0.04818 0.29873,-0.11564 0.41919,-0.20237c0.12046,-0.08673 0.22646,-0.19996 0.31801,-0.33969c0.09155,-0.13973 0.18069,-0.31078 0.26741,-0.51315l3.75825,-9.41008h0.62156l3.28124,8.15252c0.22164,0.53965 0.41437,0.97088 0.57819,1.29371c0.16382,0.32282 0.32282,0.56615 0.47701,0.72997c0.15418,0.16382 0.32042,0.26982 0.49869,0.31801c0.17828,0.04818 0.39269,0.07227 0.64324,0.07227v0.56374h-4.71227v-0.56374c0.51074,0 0.86247,-0.04818 1.0552,-0.14455c0.19273,-0.09637 0.2891,-0.25537 0.2891,-0.47701c0,-0.09637 -0.00482,-0.1855 -0.01445,-0.26741c-0.00964,-0.08191 -0.0265,-0.17105 -0.05059,-0.26741c-0.02409,-0.09637 -0.05782,-0.20478 -0.10118,-0.32523c-0.04336,-0.12046 -0.09877,-0.2626 -0.16623,-0.42642zM323.93918,276.96042h3.2957l-1.60448,-4.26417z" data-paper-data="{&quot;glyphName&quot;:&quot;A&quot;,&quot;glyphIndex&quot;:15,&quot;lastGlyphOfWord&quot;:true,&quot;word&quot;:3}" fill="#ffffff"></path><path d="M341.7427,281.71606v-0.54928c0.36619,-0.00964 0.66251,-0.03614 0.88897,-0.0795c0.22646,-0.04336 0.40233,-0.12528 0.5276,-0.24573c0.12528,-0.12046 0.20959,-0.28428 0.25296,-0.49146c0.04336,-0.20719 0.06505,-0.48424 0.06505,-0.83115v-6.73594c0,-0.33728 -0.01686,-0.60951 -0.05059,-0.8167c-0.03373,-0.20719 -0.10118,-0.37101 -0.20237,-0.49146c-0.10118,-0.12046 -0.24814,-0.20237 -0.44087,-0.24573c-0.19273,-0.04336 -0.44328,-0.07468 -0.75165,-0.09396v-0.54928h5.07364c0.86729,0 1.66953,0.14455 2.40673,0.43364c0.7372,0.2891 1.37321,0.68901 1.90804,1.19975c0.53483,0.51074 0.95161,1.11784 1.25034,1.82131c0.29873,0.70347 0.4481,1.46957 0.4481,2.29832c0,0.7902 -0.13973,1.51535 -0.41919,2.17545c-0.27946,0.6601 -0.67215,1.22625 -1.17807,1.69844c-0.50592,0.47219 -1.11061,0.84079 -1.81408,1.10579c-0.70347,0.265 -1.47439,0.39751 -2.31277,0.39751zM345.24076,271.29414c-0.16382,0 -0.24573,0.08191 -0.24573,0.24573v7.82005c0,1.09857 0.71792,1.64785 2.15377,1.64785c1.32021,0 2.33204,-0.39269 3.03551,-1.17807c0.70347,-0.78538 1.0552,-1.93935 1.0552,-3.46193c0,-0.79983 -0.09637,-1.51294 -0.2891,-2.13931c-0.19273,-0.62638 -0.46978,-1.15639 -0.83115,-1.59003c-0.36137,-0.43364 -0.79742,-0.76611 -1.30816,-0.99738c-0.51074,-0.23128 -1.08893,-0.34692 -1.73458,-0.34692z" data-paper-data="{&quot;glyphName&quot;:&quot;D&quot;,&quot;glyphIndex&quot;:16,&quot;firstGlyphOfWord&quot;:true,&quot;word&quot;:4}" fill="#ffffff"></path><path d="M363.6321,277.68316h-3.85944c-0.16382,0.3951 -0.30355,0.74442 -0.41919,1.04797c-0.11564,0.30355 -0.20959,0.56615 -0.28187,0.78779c-0.07227,0.22164 -0.12287,0.40955 -0.15178,0.56374c-0.02891,0.15418 -0.04336,0.27946 -0.04336,0.37583c0,0.26982 0.08673,0.45533 0.26019,0.55651c0.17346,0.10118 0.46255,0.15178 0.86729,0.15178v0.54928h-3.51252v-0.54928c0.22164,-0.02891 0.41196,-0.06746 0.57097,-0.11564c0.159,-0.04818 0.29873,-0.11564 0.41919,-0.20237c0.12046,-0.08673 0.22646,-0.19996 0.31801,-0.33969c0.09155,-0.13973 0.18069,-0.31078 0.26741,-0.51315l3.75825,-9.41008h0.62156l3.28124,8.15252c0.22164,0.53965 0.41437,0.97088 0.57819,1.29371c0.16382,0.32282 0.32282,0.56615 0.47701,0.72997c0.15418,0.16382 0.32042,0.26982 0.49869,0.31801c0.17828,0.04818 0.39269,0.07227 0.64324,0.07227v0.56374h-4.71227v-0.56374c0.51074,0 0.86247,-0.04818 1.0552,-0.14455c0.19273,-0.09637 0.2891,-0.25537 0.2891,-0.47701c0,-0.09637 -0.00482,-0.1855 -0.01445,-0.26741c-0.00964,-0.08191 -0.0265,-0.17105 -0.05059,-0.26741c-0.02409,-0.09637 -0.05782,-0.20478 -0.10118,-0.32523c-0.04336,-0.12046 -0.09877,-0.2626 -0.16623,-0.42642zM360.06176,276.96042h3.2957l-1.60448,-4.26417z" data-paper-data="{&quot;glyphName&quot;:&quot;A&quot;,&quot;glyphIndex&quot;:17,&quot;lastGlyphOfWord&quot;:true,&quot;word&quot;:4}" fill="#ffffff"></path><path d="M386.82726,273.37563c0,0.77092 -0.23128,1.41175 -0.69383,1.92249c-0.46255,0.51074 -1.19975,0.85283 -2.21159,1.02629l3.19451,3.84498c0.26019,0.31801 0.54687,0.54687 0.86006,0.6866c0.31319,0.13973 0.6866,0.24332 1.12025,0.31078v0.54928h-2.78978l-3.54143,-4.53881c-0.12528,-0.16382 -0.24332,-0.29391 -0.35414,-0.39028c-0.11082,-0.09637 -0.22646,-0.17105 -0.34692,-0.22405c-0.12046,-0.053 -0.26019,-0.08673 -0.41919,-0.10118c-0.159,-0.01445 -0.34932,-0.02168 -0.57097,-0.02168v3.0066c0,0.35655 0.02168,0.64806 0.06505,0.87452c0.04336,0.22646 0.13491,0.40233 0.27464,0.5276c0.13973,0.12528 0.3421,0.20959 0.6071,0.25296c0.265,0.04336 0.61433,0.06505 1.04797,0.06505v0.54928h-5.10255v-0.54928c0.33728,-0.00964 0.60951,-0.03855 0.8167,-0.08673c0.20719,-0.04818 0.3686,-0.13009 0.48424,-0.24573c0.11564,-0.11564 0.19273,-0.27946 0.23128,-0.49146c0.03855,-0.212 0.05782,-0.48665 0.05782,-0.82392v-6.73594c0,-0.33728 -0.01686,-0.60951 -0.05059,-0.8167c-0.03373,-0.20719 -0.10118,-0.37101 -0.20237,-0.49146c-0.10118,-0.12046 -0.24814,-0.20237 -0.44087,-0.24573c-0.19273,-0.04336 -0.44328,-0.07468 -0.75165,-0.09396v-0.54928h4.53881c1.32984,0 2.35854,0.24573 3.0861,0.7372c0.72756,0.49146 1.09134,1.17566 1.09134,2.05258zM381.07425,275.71731h1.02629c0.96365,0 1.67917,-0.17587 2.14654,-0.5276c0.46737,-0.35173 0.70106,-0.93234 0.70106,-1.74181c0,-0.78056 -0.1855,-1.33948 -0.55651,-1.67676c-0.37101,-0.33728 -0.95161,-0.50592 -1.74181,-0.50592h-1.32984c-0.16382,0 -0.24573,0.08191 -0.24573,0.24573z" data-paper-data="{&quot;glyphName&quot;:&quot;R&quot;,&quot;glyphIndex&quot;:18,&quot;firstGlyphOfWord&quot;:true,&quot;word&quot;:5}" fill="#ffffff"></path><path d="M395.47606,275.60167c0.52037,0 0.95643,-0.03132 1.30816,-0.09396c0.35173,-0.06264 0.63119,-0.16141 0.83838,-0.29632c0.20719,-0.13491 0.35655,-0.30837 0.4481,-0.52037c0.09155,-0.212 0.13732,-0.46255 0.13732,-0.75165h0.50592v3.94616h-0.50592c0,-0.2891 -0.04096,-0.53965 -0.12287,-0.75165c-0.08191,-0.212 -0.22646,-0.38787 -0.43364,-0.5276c-0.20719,-0.13973 -0.48665,-0.24573 -0.83838,-0.31801c-0.35173,-0.07227 -0.79742,-0.10841 -1.33707,-0.10841v3.26679c0,0.31801 0.03855,0.5806 0.11564,0.78779c0.07709,0.20719 0.20959,0.37583 0.39751,0.50592c0.18791,0.13009 0.43605,0.22164 0.74442,0.27464c0.30837,0.053 0.68901,0.0795 1.14193,0.0795c0.51074,0 0.94438,-0.03614 1.30093,-0.10841c0.35655,-0.07227 0.65528,-0.19514 0.8962,-0.3686c0.24091,-0.17346 0.43364,-0.40233 0.57819,-0.6866c0.14455,-0.28428 0.265,-0.63842 0.36137,-1.06243h0.54928l-0.21682,2.8476h-8.97644v-0.54928c0.33728,-0.00964 0.60951,-0.03855 0.8167,-0.08673c0.20719,-0.04818 0.3686,-0.13009 0.48424,-0.24573c0.11564,-0.11564 0.19273,-0.27946 0.23128,-0.49146c0.03855,-0.212 0.05782,-0.48665 0.05782,-0.82392v-6.73594c0,-0.33728 -0.01686,-0.60951 -0.05059,-0.8167c-0.03373,-0.20719 -0.10118,-0.37101 -0.20237,-0.49146c-0.10118,-0.12046 -0.24814,-0.20237 -0.44087,-0.24573c-0.19273,-0.04336 -0.44328,-0.07468 -0.75165,-0.09396v-0.54928h8.35488l0.13009,2.54405h-0.50592c-0.05782,-0.38546 -0.15178,-0.70106 -0.28187,-0.94679c-0.13009,-0.24573 -0.30837,-0.44087 -0.53483,-0.58542c-0.22646,-0.14455 -0.51315,-0.24573 -0.86006,-0.30355c-0.34692,-0.05782 -0.76611,-0.08673 -1.25757,-0.08673h-1.83576c-0.16382,0 -0.24573,0.08191 -0.24573,0.24573z" data-paper-data="{&quot;glyphName&quot;:&quot;E&quot;,&quot;glyphIndex&quot;:19,&quot;word&quot;:5}" fill="#ffffff"></path><path d="M411.41008,281.8606c-0.81911,0 -1.5563,-0.13009 -2.21159,-0.39028c-0.65528,-0.26019 -1.2142,-0.62878 -1.67676,-1.10579c-0.46255,-0.47701 -0.8167,-1.05761 -1.06243,-1.74181c-0.24573,-0.68419 -0.3686,-1.44548 -0.3686,-2.28386c0,-0.87693 0.13491,-1.67676 0.40473,-2.3995c0.26982,-0.72274 0.64806,-1.3443 1.1347,-1.86467c0.48665,-0.52037 1.06966,-0.9227 1.74903,-1.20698c0.67938,-0.28428 1.42862,-0.42642 2.24772,-0.42642c0.57819,0 1.12266,0.08191 1.63339,0.24573c0.51074,0.16382 1.06484,0.42883 1.6623,0.79501l0.30355,-0.8962h0.50592l-0.18791,3.32461h-0.69383c0,-0.47219 -0.08914,-0.87933 -0.26741,-1.22143c-0.17828,-0.3421 -0.41196,-0.62397 -0.70106,-0.84561c-0.2891,-0.22164 -0.61915,-0.38546 -0.99015,-0.49146c-0.37101,-0.106 -0.74924,-0.159 -1.1347,-0.159c-0.58783,0 -1.11302,0.11564 -1.57557,0.34692c-0.46255,0.23128 -0.85283,0.56374 -1.17084,0.99738c-0.31801,0.43364 -0.56133,0.96365 -0.72997,1.59003c-0.16864,0.62638 -0.25296,1.33466 -0.25296,2.12486c0,1.55148 0.32282,2.74401 0.96847,3.57757c0.64565,0.83356 1.58039,1.25034 2.80423,1.25034c0.46255,0 0.87693,-0.05541 1.24311,-0.16623c0.36619,-0.11082 0.67697,-0.26019 0.93234,-0.4481c0.25537,-0.18791 0.4481,-0.40473 0.57819,-0.65047c0.13009,-0.24573 0.19514,-0.50351 0.19514,-0.77333c0,-0.55892 -0.11323,-0.93715 -0.33969,-1.1347c-0.22646,-0.19755 -0.59506,-0.29632 -1.10579,-0.29632v-0.54928h4.10517v0.54928c-0.23128,0 -0.42401,0.01927 -0.57819,0.05782c-0.15418,0.03855 -0.27705,0.10841 -0.3686,0.20959c-0.09155,0.10118 -0.15418,0.23369 -0.18791,0.39751c-0.03373,0.16382 -0.05059,0.37101 -0.05059,0.62156v1.61894c-0.18309,0 -0.34932,0.00723 -0.49869,0.02168c-0.14937,0.01445 -0.30596,0.04818 -0.46978,0.10118c-0.16382,0.053 -0.34451,0.12528 -0.54206,0.21682c-0.19755,0.09155 -0.43124,0.21441 -0.70106,0.3686c-0.33728,0.19273 -0.72515,0.34692 -1.16361,0.46255c-0.43846,0.11564 -0.91788,0.17346 -1.43825,0.17346z" data-paper-data="{&quot;glyphName&quot;:&quot;G&quot;,&quot;glyphIndex&quot;:20,&quot;word&quot;:5}" fill="#ffffff"></path><path d="M424.56878,278.9841c0,0.48183 0.01927,0.86247 0.05782,1.14193c0.03855,0.27946 0.11323,0.49628 0.22405,0.65047c0.11082,0.15418 0.26982,0.25537 0.47701,0.30355c0.20719,0.04818 0.47942,0.07709 0.8167,0.08673v0.54928h-4.68336v-0.54928c0.33728,-0.00964 0.60951,-0.04096 0.8167,-0.09396c0.20719,-0.053 0.3686,-0.15178 0.48424,-0.29632c0.11564,-0.14455 0.19273,-0.34932 0.23128,-0.61433c0.03855,-0.265 0.05782,-0.62397 0.05782,-1.07688v-5.86865c0,-0.40473 -0.01686,-0.7396 -0.05059,-1.00461c-0.03373,-0.265 -0.10118,-0.4746 -0.20237,-0.62878c-0.10118,-0.15418 -0.24814,-0.2626 -0.44087,-0.32523c-0.19273,-0.06264 -0.44328,-0.10359 -0.75165,-0.12287v-0.54928h4.39426v0.54928c-0.30837,0.00964 -0.55651,0.04818 -0.74442,0.11564c-0.18791,0.06746 -0.33246,0.18069 -0.43364,0.33969c-0.10118,0.159 -0.16864,0.37823 -0.20237,0.65769c-0.03373,0.27946 -0.05059,0.63601 -0.05059,1.06966z" data-paper-data="{&quot;glyphName&quot;:&quot;I&quot;,&quot;glyphIndex&quot;:21,&quot;word&quot;:5}" fill="#ffffff"></path><path d="M436.87465,277.68316h-3.85944c-0.16382,0.3951 -0.30355,0.74442 -0.41919,1.04797c-0.11564,0.30355 -0.20959,0.56615 -0.28187,0.78779c-0.07227,0.22164 -0.12287,0.40955 -0.15178,0.56374c-0.02891,0.15418 -0.04336,0.27946 -0.04336,0.37583c0,0.26982 0.08673,0.45533 0.26019,0.55651c0.17346,0.10118 0.46255,0.15178 0.86729,0.15178v0.54928h-3.51252v-0.54928c0.22164,-0.02891 0.41196,-0.06746 0.57097,-0.11564c0.159,-0.04818 0.29873,-0.11564 0.41919,-0.20237c0.12046,-0.08673 0.22646,-0.19996 0.31801,-0.33969c0.09155,-0.13973 0.18069,-0.31078 0.26741,-0.51315l3.75825,-9.41008h0.62156l3.28124,8.15252c0.22164,0.53965 0.41437,0.97088 0.57819,1.29371c0.16382,0.32282 0.32282,0.56615 0.47701,0.72997c0.15418,0.16382 0.32042,0.26982 0.49869,0.31801c0.17828,0.04818 0.39269,0.07227 0.64324,0.07227v0.56374h-4.71227v-0.56374c0.51074,0 0.86247,-0.04818 1.0552,-0.14455c0.19273,-0.09637 0.2891,-0.25537 0.2891,-0.47701c0,-0.09637 -0.00482,-0.1855 -0.01445,-0.26741c-0.00964,-0.08191 -0.0265,-0.17105 -0.05059,-0.26741c-0.02409,-0.09637 -0.05782,-0.20478 -0.10118,-0.32523c-0.04336,-0.12046 -0.09877,-0.2626 -0.16623,-0.42642zM433.30431,276.96042h3.2957l-1.60448,-4.26417zM432.88512,269.48728c0.07709,-0.49146 0.25778,-0.88897 0.54206,-1.19252c0.28428,-0.30355 0.61433,-0.45533 0.99015,-0.45533c0.19273,0 0.38305,0.03373 0.57097,0.10118c0.18791,0.06746 0.37583,0.14455 0.56374,0.23128c0.18791,0.08673 0.37342,0.16382 0.55651,0.23128c0.18309,0.06746 0.36619,0.10118 0.54928,0.10118c0.18309,0 0.32282,-0.04577 0.41919,-0.13732c0.09637,-0.09155 0.18309,-0.24814 0.26019,-0.46978h0.47701c-0.04818,0.49146 -0.20959,0.89861 -0.48424,1.22143c-0.27464,0.32282 -0.59506,0.48424 -0.96125,0.48424c-0.19273,0 -0.38546,-0.03614 -0.57819,-0.10841c-0.19273,-0.07227 -0.38787,-0.15178 -0.58542,-0.2385c-0.19755,-0.08673 -0.3951,-0.16623 -0.59265,-0.2385c-0.19755,-0.07227 -0.39269,-0.10841 -0.58542,-0.10841c-0.18309,0 -0.32042,0.04096 -0.41196,0.12287c-0.09155,0.08191 -0.17105,0.23369 -0.2385,0.45533z" data-paper-data="{&quot;glyphName&quot;:&quot;Ã&quot;,&quot;glyphIndex&quot;:22,&quot;word&quot;:5}" fill="#ffffff"></path><path d="M450.42363,270.4413c0.84802,0 1.63821,0.14937 2.37059,0.4481c0.73238,0.29873 1.36839,0.70829 1.90804,1.22866c0.53965,0.52037 0.96365,1.13229 1.27202,1.83576c0.30837,0.70347 0.46255,1.46475 0.46255,2.28386c0,0.78056 -0.15659,1.51294 -0.46978,2.19713c-0.31319,0.68419 -0.7396,1.27925 -1.27925,1.78517c-0.53965,0.50592 -1.17566,0.90584 -1.90804,1.19975c-0.73238,0.29391 -1.51776,0.44087 -2.35613,0.44087c-0.83838,0 -1.62376,-0.14696 -2.35613,-0.44087c-0.73238,-0.29391 -1.36839,-0.69383 -1.90804,-1.19975c-0.53965,-0.50592 -0.96606,-1.10098 -1.27925,-1.78517c-0.31319,-0.68419 -0.46978,-1.41657 -0.46978,-2.19713c0,-0.81911 0.15418,-1.58039 0.46255,-2.28386c0.30837,-0.70347 0.73238,-1.31539 1.27202,-1.83576c0.53965,-0.52037 1.17566,-0.92993 1.90804,-1.22866c0.73238,-0.29873 1.52257,-0.4481 2.37059,-0.4481zM450.42363,281.06559c0.63601,0 1.20698,-0.11082 1.7129,-0.33246c0.50592,-0.22164 0.93956,-0.53965 1.30093,-0.95402c0.36137,-0.41437 0.63842,-0.91788 0.83115,-1.51053c0.19273,-0.59265 0.2891,-1.25516 0.2891,-1.98754c0,-0.77092 -0.09637,-1.46716 -0.2891,-2.08872c-0.19273,-0.62156 -0.46737,-1.15157 -0.82392,-1.59003c-0.35655,-0.43846 -0.7902,-0.77574 -1.30093,-1.01184c-0.51074,-0.2361 -1.08411,-0.35414 -1.72012,-0.35414c-0.63601,0 -1.20939,0.11805 -1.72012,0.35414c-0.51074,0.2361 -0.94438,0.57337 -1.30093,1.01184c-0.35655,0.43846 -0.63119,0.96847 -0.82392,1.59003c-0.19273,0.62156 -0.2891,1.3178 -0.2891,2.08872c0,0.73238 0.09637,1.39489 0.2891,1.98754c0.19273,0.59265 0.46737,1.09616 0.82392,1.51053c0.35655,0.41437 0.7902,0.73238 1.30093,0.95402c0.51074,0.22164 1.08411,0.33246 1.72012,0.33246z" data-paper-data="{&quot;glyphName&quot;:&quot;O&quot;,&quot;glyphIndex&quot;:23,&quot;lastGlyphOfWord&quot;:true,&quot;word&quot;:5}" fill="#ffffff"></path><path d="M65,253.31235v-1.01184h420v1.01184z" data-paper-data="{&quot;isContainerTopLineAboveSecondaryText&quot;:true}" fill="#ffffff"></path></g><g data-paper-data="{&quot;isPrimaryText&quot;:true}"><path d="M90.15725,205.4375h1.11988l0.35996,9.19899h-1.47984c-0.5866,-2.34641 -1.71981,-4.18621 -3.39963,-5.5194c-1.67982,-1.33319 -3.70626,-1.99978 -6.07934,-1.99978c-1.62649,0 -3.07966,0.31997 -4.35952,0.9599c-1.27986,0.63993 -2.35974,1.55983 -3.23965,2.7597c-0.8799,1.19987 -1.55316,2.66638 -2.01978,4.39952c-0.46662,1.73314 -0.69992,3.69293 -0.69992,5.87936c0,4.29286 0.89324,7.5925 2.67971,9.89892c1.78647,2.30641 4.37286,3.45962 7.75915,3.45962c5.1461,0 8.45241,-2.73303 9.91892,-8.1991h1.63982v9.95891h-1.39985l-0.9199,-3.15965c-2.79969,2.37307 -6.18599,3.55961 -10.15889,3.55961c-2.26642,0 -4.31286,-0.35996 -6.13933,-1.07988c-1.82647,-0.71992 -3.3863,-1.73981 -4.67949,-3.05967c-1.29319,-1.31986 -2.29308,-2.92635 -2.99967,-4.81947c-0.70659,-1.89313 -1.05988,-3.99956 -1.05988,-6.31931c0,-2.4264 0.37329,-4.63949 1.11988,-6.63927c0.74659,-1.99978 1.79314,-3.71959 3.13966,-5.15944c1.34652,-1.43984 2.95968,-2.55305 4.83947,-3.33963c1.87979,-0.78658 3.9529,-1.17987 6.21932,-1.17987c1.59983,0 3.10633,0.22664 4.51951,0.67993c1.41318,0.45328 2.94634,1.18654 4.5995,2.19976z" data-paper-data="{&quot;glyphName&quot;:&quot;C&quot;,&quot;glyphIndex&quot;:0,&quot;firstGlyphOfWord&quot;:true,&quot;word&quot;:1}" fill-rule="nonzero" fill="#ffffff"></path><path d="M118.36083,225.07536h-10.67883c-0.45328,1.09321 -0.83991,2.05977 -1.15987,2.89968c-0.31997,0.83991 -0.57994,1.5665 -0.77991,2.17976c-0.19998,0.61327 -0.33996,1.13321 -0.41995,1.55983c-0.07999,0.42662 -0.11999,0.77325 -0.11999,1.03989c0,0.74659 0.23997,1.25986 0.71992,1.53983c0.47995,0.27997 1.27986,0.41995 2.39974,0.41995v1.51983h-9.71894v-1.51983c0.61327,-0.07999 1.13988,-0.18665 1.57983,-0.31997c0.43995,-0.13332 0.82658,-0.31997 1.15987,-0.55994c0.3333,-0.23997 0.6266,-0.55327 0.8799,-0.9399c0.25331,-0.38662 0.49995,-0.85991 0.73992,-1.41984l10.39886,-26.03715h1.71981l9.07901,22.55753c0.61327,1.49317 1.14654,2.68637 1.59983,3.57961c0.45328,0.89324 0.89324,1.5665 1.31986,2.01978c0.42662,0.45328 0.88657,0.74659 1.37985,0.8799c0.49328,0.13332 1.08655,0.19998 1.77981,0.19998v1.55983h-13.03857v-1.55983c1.41318,0 2.38641,-0.13332 2.91968,-0.39996c0.53328,-0.26664 0.79991,-0.70659 0.79991,-1.31986c0,-0.26664 -0.01333,-0.51328 -0.04,-0.73992c-0.02666,-0.22664 -0.07333,-0.47328 -0.13998,-0.73992c-0.06666,-0.26664 -0.15998,-0.5666 -0.27997,-0.8999c-0.11999,-0.3333 -0.2733,-0.72659 -0.45995,-1.17987zM108.48191,223.07558h9.119l-4.43951,-11.79871z" data-paper-data="{&quot;glyphName&quot;:&quot;A&quot;,&quot;glyphIndex&quot;:1,&quot;word&quot;:1}" fill-rule="nonzero" fill="#ffffff"></path><path d="M144.28467,229.87483c0,1.01322 0.05999,1.83313 0.17998,2.45973c0.11999,0.6266 0.37996,1.10655 0.77991,1.43984c0.39996,0.3333 0.96656,0.5666 1.69981,0.69992c0.73325,0.13332 1.69981,0.21331 2.89968,0.23997v1.51983h-14.15845v-1.51983c0.93323,-0.02666 1.68648,-0.10666 2.25975,-0.23997c0.57327,-0.13332 1.01989,-0.35996 1.33985,-0.67993c0.31997,-0.31997 0.53328,-0.77325 0.63993,-1.35985c0.10666,-0.5866 0.15998,-1.34652 0.15998,-2.27975v-18.63796c0,-0.93323 -0.04666,-1.68648 -0.13998,-2.25975c-0.09332,-0.57327 -0.27997,-1.02655 -0.55994,-1.35985c-0.27997,-0.3333 -0.68659,-0.55994 -1.21987,-0.67993c-0.53328,-0.11999 -1.22653,-0.20664 -2.07977,-0.25997v-1.51983h23.11747l0.43995,7.63916h-1.39985c-0.15998,-1.14654 -0.41329,-2.08644 -0.75992,-2.81969c-0.34663,-0.73325 -0.83324,-1.31319 -1.45984,-1.73981c-0.6266,-0.42662 -1.41984,-0.72659 -2.37974,-0.8999c-0.9599,-0.17331 -2.15976,-0.25997 -3.59961,-0.25997h-5.07944c-0.45328,0 -0.67993,0.22664 -0.67993,0.67993v12.07868c1.27986,0 2.37974,-0.07333 3.29964,-0.21998c0.9199,-0.14665 1.67982,-0.40662 2.27975,-0.77991c0.59993,-0.37329 1.05988,-0.8799 1.37985,-1.51983c0.31997,-0.63993 0.51994,-1.46651 0.59993,-2.47973h1.39985v11.71872h-1.39985c-0.13332,-1.01322 -0.34663,-1.85313 -0.63993,-2.51972c-0.2933,-0.66659 -0.72659,-1.18654 -1.29986,-1.55983c-0.57327,-0.37329 -1.31319,-0.63993 -2.21976,-0.79991c-0.90657,-0.15998 -2.03978,-0.23997 -3.39963,-0.23997z" data-paper-data="{&quot;glyphName&quot;:&quot;F&quot;,&quot;glyphIndex&quot;:2,&quot;word&quot;:1}" fill-rule="nonzero" fill="#ffffff"></path><path d="M175.24795,219.31599c1.43984,0 2.64638,-0.08666 3.6196,-0.25997c0.97323,-0.17331 1.74648,-0.44662 2.31975,-0.81991c0.57327,-0.37329 0.98656,-0.85324 1.23986,-1.43984c0.25331,-0.5866 0.37996,-1.27986 0.37996,-2.07977h1.39985v10.91881h-1.39985c0,-0.79991 -0.11332,-1.49317 -0.33996,-2.07977c-0.22664,-0.5866 -0.6266,-1.07322 -1.19987,-1.45984c-0.57327,-0.38662 -1.34652,-0.67993 -2.31975,-0.8799c-0.97323,-0.19998 -2.20643,-0.29997 -3.6996,-0.29997v9.03901c0,0.8799 0.10666,1.60649 0.31997,2.17976c0.21331,0.57327 0.57994,1.03989 1.09988,1.39985c0.51994,0.35996 1.20653,0.61327 2.05977,0.75992c0.85324,0.14665 1.90646,0.21998 3.15965,0.21998c1.41318,0 2.61305,-0.09999 3.59961,-0.29997c0.98656,-0.19998 1.81314,-0.53994 2.47973,-1.01989c0.66659,-0.47995 1.19987,-1.11321 1.59983,-1.89979c0.39996,-0.78658 0.73325,-1.76647 0.99989,-2.93968h1.51983l-0.59993,7.87914h-24.83728v-1.51983c0.93323,-0.02666 1.68648,-0.10666 2.25975,-0.23997c0.57327,-0.13332 1.01989,-0.35996 1.33985,-0.67993c0.31997,-0.31997 0.53328,-0.77325 0.63993,-1.35985c0.10666,-0.5866 0.15998,-1.34652 0.15998,-2.27975v-18.63796c0,-0.93323 -0.04666,-1.68648 -0.13998,-2.25975c-0.09332,-0.57327 -0.27997,-1.02655 -0.55994,-1.35985c-0.27997,-0.3333 -0.68659,-0.55994 -1.21987,-0.67993c-0.53328,-0.11999 -1.22653,-0.20664 -2.07977,-0.25997v-1.51983h23.11747l0.35996,7.03923h-1.39985c-0.15998,-1.06655 -0.41995,-1.93979 -0.77991,-2.61971c-0.35996,-0.67993 -0.85324,-1.21987 -1.47984,-1.61982c-0.6266,-0.39996 -1.41984,-0.67993 -2.37974,-0.83991c-0.9599,-0.15998 -2.11977,-0.23997 -3.47962,-0.23997h-5.07944c-0.45328,0 -0.67993,0.22664 -0.67993,0.67993zM176.00786,202.23785l5.19943,-3.07966c0.74659,-0.45328 1.37985,-0.78658 1.89979,-0.99989c0.51994,-0.21331 1.04655,-0.31997 1.57983,-0.31997c0.45328,0 0.81991,0.11999 1.09988,0.35996c0.27997,0.23997 0.41995,0.5866 0.41995,1.03989c0,0.42662 -0.2733,0.79325 -0.81991,1.09988c-0.54661,0.30663 -1.27319,0.5666 -2.17976,0.77991l-4.79948,1.11988z" data-paper-data="{&quot;glyphName&quot;:&quot;É&quot;,&quot;glyphIndex&quot;:3,&quot;lastGlyphOfWord&quot;:true,&quot;word&quot;:1}" fill-rule="nonzero" fill="#ffffff"></path><path d="M272.34325,236.23414v-1.51983c1.01322,-0.02666 1.83313,-0.09999 2.45973,-0.21998c0.6266,-0.11999 1.11321,-0.34663 1.45984,-0.67993c0.34663,-0.3333 0.57994,-0.78658 0.69992,-1.35985c0.11999,-0.57327 0.17998,-1.33985 0.17998,-2.29975v-18.63796c0,-0.93323 -0.04666,-1.68648 -0.13998,-2.25975c-0.09332,-0.57327 -0.27997,-1.02655 -0.55994,-1.35985c-0.27997,-0.3333 -0.68659,-0.55994 -1.21987,-0.67993c-0.53328,-0.11999 -1.22653,-0.20664 -2.07977,-0.25997v-1.51983h14.03847c2.39974,0 4.61949,0.39996 6.65927,1.19987c2.03978,0.79991 3.79958,1.90646 5.27942,3.31964c1.47984,1.41318 2.63305,3.093 3.45962,5.03945c0.82658,1.94645 1.23986,4.06622 1.23986,6.3593c0,2.18643 -0.38662,4.19287 -1.15987,6.01934c-0.77325,1.82647 -1.8598,3.39296 -3.25964,4.69949c-1.39985,1.30652 -3.073,2.32641 -5.01945,3.05967c-1.94645,0.73325 -4.07955,1.09988 -6.3993,1.09988zM282.02219,207.39729c-0.45328,0 -0.67993,0.22664 -0.67993,0.67993v21.63763c0,3.03967 1.98645,4.5595 5.95935,4.5595c3.65293,0 6.45263,-1.08655 8.39908,-3.25964c1.94645,-2.1731 2.91968,-5.36608 2.91968,-9.57895c0,-2.21309 -0.26664,-4.18621 -0.79991,-5.91935c-0.53328,-1.73314 -1.29986,-3.19965 -2.29975,-4.39952c-0.99989,-1.19987 -2.20643,-2.11977 -3.6196,-2.7597c-1.41318,-0.63993 -3.013,-0.9599 -4.79948,-0.9599z" data-paper-data="{&quot;glyphName&quot;:&quot;D&quot;,&quot;glyphIndex&quot;:4,&quot;firstGlyphOfWord&quot;:true,&quot;word&quot;:2}" fill-rule="nonzero" fill="#ffffff"></path><path d="M320.22468,219.31599c1.43984,0 2.64638,-0.08666 3.6196,-0.25997c0.97323,-0.17331 1.74648,-0.44662 2.31975,-0.81991c0.57327,-0.37329 0.98656,-0.85324 1.23986,-1.43984c0.25331,-0.5866 0.37996,-1.27986 0.37996,-2.07977h1.39985v10.91881h-1.39985c0,-0.79991 -0.11332,-1.49317 -0.33996,-2.07977c-0.22664,-0.5866 -0.6266,-1.07322 -1.19987,-1.45984c-0.57327,-0.38662 -1.34652,-0.67993 -2.31975,-0.8799c-0.97323,-0.19998 -2.20643,-0.29997 -3.6996,-0.29997v9.03901c0,0.8799 0.10666,1.60649 0.31997,2.17976c0.21331,0.57327 0.57994,1.03989 1.09988,1.39985c0.51994,0.35996 1.20653,0.61327 2.05977,0.75992c0.85324,0.14665 1.90646,0.21998 3.15965,0.21998c1.41318,0 2.61305,-0.09999 3.59961,-0.29997c0.98656,-0.19998 1.81314,-0.53994 2.47973,-1.01989c0.66659,-0.47995 1.19987,-1.11321 1.59983,-1.89979c0.39996,-0.78658 0.73325,-1.76647 0.99989,-2.93968h1.51983l-0.59993,7.87914h-24.83728v-1.51983c0.93323,-0.02666 1.68648,-0.10666 2.25975,-0.23997c0.57327,-0.13332 1.01989,-0.35996 1.33985,-0.67993c0.31997,-0.31997 0.53328,-0.77325 0.63993,-1.35985c0.10666,-0.5866 0.15998,-1.34652 0.15998,-2.27975v-18.63796c0,-0.93323 -0.04666,-1.68648 -0.13998,-2.25975c-0.09332,-0.57327 -0.27997,-1.02655 -0.55994,-1.35985c-0.27997,-0.3333 -0.68659,-0.55994 -1.21987,-0.67993c-0.53328,-0.11999 -1.22653,-0.20664 -2.07977,-0.25997v-1.51983h23.11747l0.35996,7.03923h-1.39985c-0.15998,-1.06655 -0.41995,-1.93979 -0.77991,-2.61971c-0.35996,-0.67993 -0.85324,-1.21987 -1.47984,-1.61982c-0.6266,-0.39996 -1.41984,-0.67993 -2.37974,-0.83991c-0.9599,-0.15998 -2.11977,-0.23997 -3.47962,-0.23997h-5.07944c-0.45328,0 -0.67993,0.22664 -0.67993,0.67993z" data-paper-data="{&quot;glyphName&quot;:&quot;E&quot;,&quot;glyphIndex&quot;:5,&quot;word&quot;:2}" fill-rule="nonzero" fill="#ffffff"></path><path d="M370.66583,236.23414h-25.83718v-1.51983c0.93323,-0.02666 1.68648,-0.10666 2.25975,-0.23997c0.57327,-0.13332 1.01989,-0.35996 1.33985,-0.67993c0.31997,-0.31997 0.53328,-0.77325 0.63993,-1.35985c0.10666,-0.5866 0.15998,-1.34652 0.15998,-2.27975v-18.63796c0,-0.93323 -0.04666,-1.68648 -0.13998,-2.25975c-0.09332,-0.57327 -0.27997,-1.02655 -0.55994,-1.35985c-0.27997,-0.3333 -0.68659,-0.55994 -1.21987,-0.67993c-0.53328,-0.11999 -1.22653,-0.20664 -2.07977,-0.25997v-1.51983h12.15867v1.51983c-0.85324,0.02666 -1.53983,0.10666 -2.05977,0.23997c-0.51994,0.13332 -0.9199,0.37329 -1.19987,0.71992c-0.27997,0.34663 -0.46662,0.82658 -0.55994,1.43984c-0.09332,0.61327 -0.13998,1.42651 -0.13998,2.43973v17.23812c0,1.11988 0.11332,2.03311 0.33996,2.7397c0.22664,0.70659 0.61327,1.2532 1.15987,1.63982c0.54661,0.38662 1.27319,0.65326 2.17976,0.79991c0.90657,0.14665 2.05311,0.21998 3.43962,0.21998c1.51983,0 2.79969,-0.08666 3.83958,-0.25997c1.03989,-0.17331 1.91312,-0.47995 2.61971,-0.9199c0.70659,-0.43995 1.26653,-1.05322 1.67982,-1.8398c0.41329,-0.78658 0.76658,-1.80647 1.05988,-3.05967h1.51983z" data-paper-data="{&quot;glyphName&quot;:&quot;L&quot;,&quot;glyphIndex&quot;:6,&quot;word&quot;:2}" fill-rule="nonzero" fill="#ffffff"></path><path d="M386.67075,228.67496c0,1.33319 0.05333,2.38641 0.15998,3.15965c0.10666,0.77325 0.3133,1.37318 0.61993,1.7998c0.30663,0.42662 0.74659,0.70659 1.31986,0.83991c0.57327,0.13332 1.32652,0.21331 2.25975,0.23997v1.51983h-12.95858v-1.51983c0.93323,-0.02666 1.68648,-0.11332 2.25975,-0.25997c0.57327,-0.14665 1.01989,-0.41995 1.33985,-0.81991c0.31997,-0.39996 0.53328,-0.96656 0.63993,-1.69981c0.10666,-0.73325 0.15998,-1.72648 0.15998,-2.97967v-16.23822c0,-1.11988 -0.04666,-2.04644 -0.13998,-2.7797c-0.09332,-0.73325 -0.27997,-1.31319 -0.55994,-1.73981c-0.27997,-0.42662 -0.68659,-0.72659 -1.21987,-0.8999c-0.53328,-0.17331 -1.22653,-0.28664 -2.07977,-0.33996v-1.51983h12.15867v1.51983c-0.85324,0.02666 -1.53983,0.13332 -2.05977,0.31997c-0.51994,0.18665 -0.9199,0.49995 -1.19987,0.9399c-0.27997,0.43995 -0.46662,1.04655 -0.55994,1.8198c-0.09332,0.77325 -0.13998,1.75981 -0.13998,2.95968zM380.51142,202.23785l5.19943,-3.07966c0.74659,-0.45328 1.37985,-0.78658 1.89979,-0.99989c0.51994,-0.21331 1.04655,-0.31997 1.57983,-0.31997c0.45328,0 0.81991,0.11999 1.09988,0.35996c0.27997,0.23997 0.41995,0.5866 0.41995,1.03989c0,0.42662 -0.2733,0.79325 -0.81991,1.09988c-0.54661,0.30663 -1.27319,0.5666 -2.17976,0.77991l-4.79948,1.11988z" data-paper-data="{&quot;glyphName&quot;:&quot;Í&quot;,&quot;glyphIndex&quot;:7,&quot;word&quot;:2}" fill-rule="nonzero" fill="#ffffff"></path><path d="M424.15332,205.4375h1.11988l0.35996,9.19899h-1.47984c-0.5866,-2.34641 -1.71981,-4.18621 -3.39963,-5.5194c-1.67982,-1.33319 -3.70626,-1.99978 -6.07934,-1.99978c-1.62649,0 -3.07966,0.31997 -4.35952,0.9599c-1.27986,0.63993 -2.35974,1.55983 -3.23965,2.7597c-0.8799,1.19987 -1.55316,2.66638 -2.01978,4.39952c-0.46662,1.73314 -0.69992,3.69293 -0.69992,5.87936c0,4.29286 0.89324,7.5925 2.67971,9.89892c1.78647,2.30641 4.37286,3.45962 7.75915,3.45962c5.1461,0 8.45241,-2.73303 9.91892,-8.1991h1.63982v9.95891h-1.39985l-0.9199,-3.15965c-2.79969,2.37307 -6.18599,3.55961 -10.15889,3.55961c-2.26642,0 -4.31286,-0.35996 -6.13933,-1.07988c-1.82647,-0.71992 -3.3863,-1.73981 -4.67949,-3.05967c-1.29319,-1.31986 -2.29308,-2.92635 -2.99967,-4.81947c-0.70659,-1.89313 -1.05988,-3.99956 -1.05988,-6.31931c0,-2.4264 0.37329,-4.63949 1.11988,-6.63927c0.74659,-1.99978 1.79314,-3.71959 3.13966,-5.15944c1.34652,-1.43984 2.95968,-2.55305 4.83947,-3.33963c1.87979,-0.78658 3.9529,-1.17987 6.21932,-1.17987c1.59983,0 3.10633,0.22664 4.51951,0.67993c1.41318,0.45328 2.94634,1.18654 4.5995,2.19976z" data-paper-data="{&quot;glyphName&quot;:&quot;C&quot;,&quot;glyphIndex&quot;:8,&quot;word&quot;:2}" fill-rule="nonzero" fill="#ffffff"></path><path d="M443.2379,228.67496c0,1.33319 0.05333,2.38641 0.15998,3.15965c0.10666,0.77325 0.3133,1.37318 0.61993,1.7998c0.30663,0.42662 0.74659,0.70659 1.31986,0.83991c0.57327,0.13332 1.32652,0.21331 2.25975,0.23997v1.51983h-12.95858v-1.51983c0.93323,-0.02666 1.68648,-0.11332 2.25975,-0.25997c0.57327,-0.14665 1.01989,-0.41995 1.33985,-0.81991c0.31997,-0.39996 0.53328,-0.96656 0.63993,-1.69981c0.10666,-0.73325 0.15998,-1.72648 0.15998,-2.97967v-16.23822c0,-1.11988 -0.04666,-2.04644 -0.13998,-2.7797c-0.09332,-0.73325 -0.27997,-1.31319 -0.55994,-1.73981c-0.27997,-0.42662 -0.68659,-0.72659 -1.21987,-0.8999c-0.53328,-0.17331 -1.22653,-0.28664 -2.07977,-0.33996v-1.51983h12.15867v1.51983c-0.85324,0.02666 -1.53983,0.13332 -2.05977,0.31997c-0.51994,0.18665 -0.9199,0.49995 -1.19987,0.9399c-0.27997,0.43995 -0.46662,1.04655 -0.55994,1.8198c-0.09332,0.77325 -0.13998,1.75981 -0.13998,2.95968z" data-paper-data="{&quot;glyphName&quot;:&quot;I&quot;,&quot;glyphIndex&quot;:9,&quot;word&quot;:2}" fill-rule="nonzero" fill="#ffffff"></path><path d="M473.1213,225.07536h-10.67883c-0.45328,1.09321 -0.83991,2.05977 -1.15987,2.89968c-0.31997,0.83991 -0.57994,1.5665 -0.77991,2.17976c-0.19998,0.61327 -0.33996,1.13321 -0.41995,1.55983c-0.07999,0.42662 -0.11999,0.77325 -0.11999,1.03989c0,0.74659 0.23997,1.25986 0.71992,1.53983c0.47995,0.27997 1.27986,0.41995 2.39974,0.41995v1.51983h-9.71894v-1.51983c0.61327,-0.07999 1.13988,-0.18665 1.57983,-0.31997c0.43995,-0.13332 0.82658,-0.31997 1.15987,-0.55994c0.3333,-0.23997 0.6266,-0.55327 0.8799,-0.9399c0.25331,-0.38662 0.49995,-0.85991 0.73992,-1.41984l10.39886,-26.03715h1.71981l9.07901,22.55753c0.61327,1.49317 1.14654,2.68637 1.59983,3.57961c0.45328,0.89324 0.89324,1.5665 1.31986,2.01978c0.42662,0.45328 0.88657,0.74659 1.37985,0.8799c0.49328,0.13332 1.08655,0.19998 1.77981,0.19998v1.55983h-13.03857v-1.55983c1.41318,0 2.38641,-0.13332 2.91968,-0.39996c0.53328,-0.26664 0.79991,-0.70659 0.79991,-1.31986c0,-0.26664 -0.01333,-0.51328 -0.04,-0.73992c-0.02666,-0.22664 -0.07333,-0.47328 -0.13998,-0.73992c-0.06666,-0.26664 -0.15998,-0.5666 -0.27997,-0.8999c-0.11999,-0.3333 -0.2733,-0.72659 -0.45995,-1.17987zM463.24238,223.07558h9.119l-4.43951,-11.79871z" data-paper-data="{&quot;glyphName&quot;:&quot;A&quot;,&quot;glyphIndex&quot;:10,&quot;lastGlyphOfWord&quot;:true,&quot;word&quot;:2}" fill-rule="nonzero" fill="#ffffff"></path><g data-paper-data="{&quot;fillRule&quot;:&quot;evenodd&quot;,&quot;fillRuleOriginal&quot;:&quot;evenodd&quot;,&quot;isIcon&quot;:true,&quot;iconStyle&quot;:&quot;icon-in-text&quot;,&quot;selectedEffects&quot;:{&quot;container&quot;:&quot;&quot;,&quot;transformation&quot;:&quot;&quot;,&quot;pattern&quot;:&quot;&quot;},&quot;bounds&quot;:{&quot;x&quot;:203.6515087223805,&quot;y&quot;:188.13939511349523,&quot;width&quot;:57.12633748460436,&quot;height&quot;:57.79368176072305},&quot;iconType&quot;:&quot;icon&quot;,&quot;isDetailed&quot;:false,&quot;source&quot;:&quot;noun&quot;,&quot;rawIconId&quot;:&quot;306161&quot;,&quot;suitableAsStandaloneIcon&quot;:true}" fill-rule="evenodd"><path d="M224.88453,211.05171c3.03316,-4.92889 7.33014,-8.72034 12.13265,-10.74245c-4.1706,-7.96205 -11.7535,-12.63818 -18.95727,-12.13265c3.28593,3.66507 6.06633,9.98416 6.57185,20.47385c0.12638,0.88467 0.25276,1.64296 0.25276,2.40125zM218.43906,209.0296c-0.50553,-11.62712 -4.1706,-16.42963 -7.07738,-18.45174c-7.07738,4.67612 -9.7314,15.41858 -6.06633,25.52912c2.90678,7.83567 8.84673,13.27009 15.16581,15.03943c-0.37914,-3.03316 -0.37914,-6.19271 0.25276,-9.35225c-1.13743,-3.66507 -2.02211,-7.83567 -2.27487,-12.76456zM246.24305,202.58413h-1.26382c-7.83567,0 -15.79772,6.06633 -19.33641,15.54496c-3.79145,10.23692 -1.01105,20.85299 6.06633,25.52912c3.91783,-4.04422 7.45652,-10.36331 7.83567,-20.60023c0.63191,-10.61607 3.41231,-16.80878 6.69823,-20.47385zM253.06767,204.859c-2.90678,2.02211 -6.57185,6.82462 -7.07738,18.32536c-0.50553,10.48969 -3.66507,17.69345 -7.70929,22.62234c0.50553,0 1.01105,0.12638 1.51658,0.12638c7.83567,0 15.79772,-6.19271 19.33641,-15.54496c3.66507,-10.23692 1.01105,-20.85299 -6.06633,-25.52912z" data-paper-data="{&quot;isPathIcon&quot;:true}" fill="#ffffff"></path></g></g></g></g><g class="watermark-group" style="opacity:0.10; stroke: white; stroke-width: 2; stroke-opacity: 0.7;"></g></svg>